<?xml version="1.0" encoding="utf-8"?>
<!-- Generator: Adobe Illustrator 15.1.0, SVG Export Plug-In . SVG Version: 6.00 Build 0)  -->
<!DOCTYPE svg PUBLIC "-//W3C//DTD SVG 1.1//EN" "http://www.w3.org/Graphics/SVG/1.1/DTD/svg11.dtd">
<svg version="1.1" id="Ebene_1" xmlns="http://www.w3.org/2000/svg" xmlns:xlink="http://www.w3.org/1999/xlink" x="0px" y="0px"
	 width="97px" height="58px" viewBox="0 0 97 58" enable-background="new 0 0 97 58" xml:space="preserve">
<g>
	<g>
		<g>
			<path fill="#CB0D1D" d="M8.587,9.974C6.494,9.131,4.685,8.403,4.685,6.648c0-1.785,1.417-2.808,3.888-2.808
				c1.273,0,2.695,0.221,4.002,0.624l0.486,0.149l0.256-4.143l-0.354-0.061C11.32,0.13,9.989,0,8.775,0C3.445,0,0,2.769,0,7.053
				c0,4.347,3.343,5.661,6.029,6.716c2.11,0.83,3.932,1.545,3.932,3.414c0,2.808-2.884,3.111-4.124,3.111
				c-1.458,0-3.217-0.314-4.589-0.82l-0.507-0.187l-0.253,4.347l0.319,0.083C2.198,24.074,3.865,24.27,5.5,24.27
				c5.471,0,9.147-3.065,9.147-7.627C14.647,12.414,11.287,11.061,8.587,9.974 M42.942,0.337l-8.458,23.595h4.568l1.756-5.031h8.65
				l1.756,5.031h4.942L47.592,0.337H42.942z M42.041,15.162l2.371-6.521c0.271-0.749,0.507-1.488,0.703-2.192
				c0.194,0.719,0.413,1.396,0.671,2.091l2.404,6.622H42.041z M28.882,9.759h-8.369V0.337h-4.482v23.595h4.482V13.701h8.369v10.231
				h4.449V0.337h-4.449V9.759z M66.295,13.741l-0.222-0.278c3.732-0.663,6.103-3.224,6.103-6.68c0-4.366-2.816-6.58-8.371-6.58
				c-2.748,0-4.583,0.041-6.137,0.136l-0.376,0.023v23.571h4.482V14.68l6.654,9.252h5.638l-6.5-8.581
				C67.184,14.854,66.739,14.297,66.295,13.741 M61.775,10.532V4.054c0.426-0.023,0.962-0.045,1.524-0.045
				c2.922,0,4.225,0.98,4.225,3.179c0,2.085-1.67,3.382-4.36,3.382C62.597,10.57,62.119,10.553,61.775,10.532 M90.743,9.974
				c-2.093-0.843-3.902-1.571-3.902-3.326c0-1.785,1.417-2.808,3.888-2.808c1.274,0,2.695,0.221,4.003,0.624l0.486,0.149
				l0.256-4.143l-0.355-0.061C93.477,0.13,92.146,0,90.932,0c-5.331,0-8.775,2.769-8.775,7.053c0,4.347,3.343,5.661,6.03,6.716
				c2.11,0.83,3.932,1.545,3.932,3.414c0,2.808-2.884,3.111-4.125,3.111c-1.458,0-3.217-0.314-4.589-0.82l-0.507-0.187l-0.253,4.347
				l0.319,0.083c1.39,0.356,3.057,0.552,4.692,0.552c5.471,0,9.147-3.065,9.147-7.627C96.803,12.414,93.443,11.061,90.743,9.974
				 M75.563,23.933h4.482V0.337h-4.482V23.933z"/>
		</g>
		<g>
			<path d="M5.355,41.878c-1.093,0-1.92-0.104-2.764-0.312V30.903h1.671v3.405c0,0.432-0.046,1.026-0.141,1.414h0.031
				c0.406-0.922,1.327-1.502,2.466-1.502c1.843,0,2.858,1.249,2.858,3.48C9.477,40.257,7.932,41.878,5.355,41.878 M6.183,35.543
				c-1.25,0-1.92,1.383-1.92,2.632v2.291c0.343,0.104,0.734,0.149,1.218,0.149c1.328,0,2.232-0.774,2.232-2.767
				C7.712,36.36,7.229,35.543,6.183,35.543"/>
		</g>
		<g>
			<path d="M16.579,41.759c0-0.386,0.031-1.026,0.109-1.443l-0.016-0.015c-0.453,0.952-1.389,1.606-2.701,1.606
				c-1.764,0-2.311-1.057-2.311-2.365v-5.176h1.655v4.76c0,0.921,0.265,1.457,1.155,1.457c1.171,0,2.03-1.174,2.03-2.647v-3.57h1.67
				v7.392H16.579z"/>
		</g>
		<g>
			<path d="M22.164,41.908c-0.578,0-1.155-0.06-1.639-0.149l0.047-1.353c0.484,0.134,1.093,0.238,1.687,0.238
				c0.905,0,1.53-0.373,1.53-0.982c0-1.487-3.404-0.595-3.404-3.153c0-1.279,1.093-2.291,3.201-2.291
				c0.453,0,0.983,0.06,1.452,0.133l-0.047,1.295c-0.468-0.134-1.015-0.208-1.515-0.208c-0.921,0-1.374,0.357-1.374,0.922
				c0,1.428,3.435,0.699,3.435,3.153C25.536,40.897,24.24,41.908,22.164,41.908"/>
		</g>
		<g>
			<path d="M28.074,33.267c-0.594,0-1.077-0.446-1.077-0.997c0-0.55,0.483-0.997,1.077-0.997c0.578,0,1.061,0.432,1.061,0.997
				C29.135,32.821,28.651,33.267,28.074,33.267 M27.23,34.367h1.671v7.392H27.23V34.367z"/>
		</g>
		<g>
			<path d="M36.005,41.759V37c0-0.922-0.266-1.458-1.156-1.458c-1.171,0-2.03,1.176-2.03,2.647v3.57h-1.67v-7.392h1.593
				c0,0.388-0.031,1.026-0.109,1.443l0.015,0.015c0.452-0.952,1.39-1.606,2.701-1.606c1.765,0,2.311,1.056,2.311,2.366v5.175H36.005
				z"/>
		</g>
		<g>
			<path d="M46.104,38.16h-4.95c-0.047,1.71,0.75,2.483,2.295,2.483c0.796,0,1.624-0.178,2.264-0.476l0.156,1.265
				c-0.78,0.312-1.733,0.476-2.685,0.476c-2.42,0-3.747-1.189-3.747-3.793c0-2.23,1.28-3.896,3.544-3.896
				c2.217,0,3.169,1.443,3.169,3.198C46.151,37.625,46.135,37.877,46.104,38.16 M42.919,35.394c-0.937,0-1.592,0.654-1.733,1.651
				h3.294C44.512,36.034,43.903,35.394,42.919,35.394"/>
		</g>
		<g>
			<path d="M49.296,41.908c-0.578,0-1.155-0.06-1.639-0.149l0.046-1.353c0.484,0.134,1.093,0.238,1.686,0.238
				c0.906,0,1.531-0.373,1.531-0.982c0-1.487-3.404-0.595-3.404-3.153c0-1.279,1.093-2.291,3.201-2.291
				c0.453,0,0.983,0.06,1.452,0.133l-0.046,1.295c-0.469-0.134-1.015-0.208-1.515-0.208c-0.921,0-1.374,0.357-1.374,0.922
				c0,1.428,3.435,0.699,3.435,3.153C52.668,40.897,51.373,41.908,49.296,41.908"/>
		</g>
		<g>
			<path d="M55.672,41.908c-0.578,0-1.155-0.06-1.639-0.149l0.047-1.353c0.483,0.134,1.093,0.238,1.686,0.238
				c0.906,0,1.531-0.373,1.531-0.982c0-1.487-3.403-0.595-3.403-3.153c0-1.279,1.093-2.291,3.2-2.291
				c0.454,0,0.984,0.06,1.453,0.133l-0.047,1.295c-0.468-0.134-1.015-0.208-1.515-0.208c-0.92,0-1.373,0.357-1.373,0.922
				c0,1.428,3.435,0.699,3.435,3.153C59.045,40.897,57.75,41.908,55.672,41.908"/>
		</g>
		<g>
			<rect x="63.604" y="30.903" width="1.671" height="10.856"/>
		</g>
		<g>
			<path d="M70.594,41.908c-2.154,0-3.559-1.145-3.559-3.748c0-2.231,1.514-3.941,3.872-3.941c2.077,0,3.544,1.1,3.544,3.703
				C74.45,40.198,72.89,41.908,70.594,41.908 M70.766,35.558c-1.015,0-1.999,0.744-1.999,2.439c0,1.666,0.687,2.544,1.983,2.544
				c1.077,0,1.982-0.804,1.982-2.515C72.733,36.45,72.093,35.558,70.766,35.558"/>
		</g>
		<g>
			<path d="M79.3,45.567c-2.03,0-3.295-0.744-3.295-2.172c0-0.833,0.578-1.532,1.25-1.859c-0.469-0.223-0.765-0.61-0.765-1.101
				c0-0.536,0.343-1.042,0.89-1.264c-0.765-0.401-1.155-1.161-1.155-2.083c0-1.561,1.25-2.87,3.466-2.87
				c0.468,0,0.859,0.06,1.281,0.148h2.623v1.25h-1.187c0.328,0.253,0.531,0.699,0.531,1.234c0,1.606-1.171,2.736-3.357,2.736
				c-0.296,0-0.656-0.03-0.89-0.074c-0.313,0.119-0.454,0.342-0.454,0.55c0,0.372,0.344,0.521,1.281,0.521h1.327
				c1.687,0,2.639,0.758,2.639,2.142C83.484,44.302,81.798,45.567,79.3,45.567 M80.393,41.878h-1.452c-0.14,0-0.296,0-0.422-0.015
				c-0.531,0.283-0.858,0.729-0.858,1.234c0,0.789,0.78,1.235,1.904,1.235c1.453,0,2.264-0.595,2.264-1.398
				C81.829,42.295,81.376,41.878,80.393,41.878 M79.612,35.394c-1.109,0-1.764,0.64-1.764,1.546c0,0.967,0.624,1.533,1.749,1.533
				c1.046,0,1.733-0.551,1.733-1.519C81.33,35.974,80.689,35.394,79.612,35.394"/>
		</g>
		<g>
			<path d="M86.359,33.267c-0.593,0-1.077-0.446-1.077-0.997c0-0.55,0.484-0.997,1.077-0.997c0.578,0,1.062,0.432,1.062,0.997
				C87.42,32.821,86.937,33.267,86.359,33.267 M85.516,34.367h1.671v7.392h-1.671V34.367z"/>
		</g>
		<g>
			<path d="M91.976,41.878c-1.999,0-3.451-0.937-3.451-3.569c0-2.35,1.266-4.061,3.935-4.061c0.577,0,1.171,0.074,1.687,0.223
				l-0.172,1.384c-0.468-0.164-0.999-0.282-1.562-0.282c-1.42,0-2.139,0.997-2.139,2.558c0,1.354,0.516,2.38,2.061,2.38
				c0.593,0,1.233-0.134,1.686-0.358l0.141,1.354C93.646,41.7,92.834,41.878,91.976,41.878"/>
		</g>
	</g>
	<g>
		<path fill="#575656" d="M1.382,56.419l-0.521,1.503h-0.67l1.712-4.779h0.774l1.712,4.779H3.698l-0.536-1.503H1.382z M3.036,55.937
			l-0.499-1.376c-0.112-0.312-0.186-0.596-0.261-0.872H2.261c-0.075,0.276-0.149,0.574-0.253,0.865l-0.491,1.383H3.036z"/>
		<path fill="#575656" d="M7.153,53.2c0.313-0.05,0.722-0.092,1.243-0.092c0.641,0,1.109,0.142,1.408,0.397
			c0.268,0.227,0.439,0.574,0.439,1c0,0.432-0.134,0.772-0.387,1.021c-0.35,0.348-0.901,0.525-1.534,0.525
			c-0.194,0-0.373-0.007-0.521-0.043v1.915H7.153V53.2z M7.8,55.504c0.142,0.035,0.321,0.049,0.536,0.049
			c0.782,0,1.259-0.369,1.259-1.014c0-0.638-0.477-0.942-1.185-0.942c-0.283,0-0.498,0.021-0.61,0.049V55.504z"/>
		<path fill="#575656" d="M11.985,53.143v2h2.427v-2h0.656v4.779h-0.656v-2.24h-2.427v2.24H11.33v-4.779H11.985z"/>
		<path fill="#575656" d="M20.704,55.483c0,1.638-1.05,2.517-2.331,2.517c-1.333,0-2.256-0.985-2.256-2.432
			c0-1.518,0.983-2.51,2.323-2.51C19.818,53.058,20.704,54.058,20.704,55.483z M16.802,55.554c0,1.028,0.581,1.943,1.608,1.943
			c1.027,0,1.608-0.901,1.608-1.986c0-0.957-0.521-1.95-1.601-1.95S16.802,54.511,16.802,55.554z"/>
		<path fill="#575656" d="M24.359,55.682h-1.943v1.723h2.174v0.518h-2.83v-4.779h2.718v0.518h-2.063v1.51h1.943V55.682z"/>
		<path fill="#575656" d="M25.656,57.922v-4.779h0.714l1.601,2.417c0.365,0.561,0.663,1.064,0.894,1.554l0.022-0.008
			c-0.06-0.638-0.075-1.219-0.075-1.964v-2h0.611v4.779h-0.655l-1.593-2.426c-0.35-0.531-0.685-1.077-0.931-1.595l-0.023,0.007
			c0.038,0.603,0.045,1.177,0.045,1.971v2.042H25.656z"/>
		<path fill="#575656" d="M31.425,53.143v4.779h-0.655v-4.779H31.425z"/>
		<path fill="#575656" d="M35.528,57.922l-0.648-1.057c-0.261-0.404-0.417-0.666-0.573-0.942h-0.015
			c-0.142,0.276-0.291,0.532-0.544,0.95l-0.603,1.05h-0.745l1.534-2.418l-1.475-2.361h0.752l0.663,1.12
			c0.186,0.312,0.328,0.553,0.461,0.809h0.022c0.141-0.284,0.268-0.503,0.454-0.809l0.678-1.12h0.752l-1.527,2.326l1.564,2.454
			H35.528z"/>
		<path fill="#575656" d="M43.287,55.823c-0.037-0.667-0.082-1.475-0.082-2.063H43.19c-0.179,0.552-0.38,1.156-0.633,1.815
			l-0.887,2.318H41.18l-0.819-2.276c-0.238-0.681-0.432-1.291-0.573-1.857h-0.015c-0.015,0.595-0.053,1.389-0.097,2.113
			l-0.134,2.049h-0.618l0.35-4.779H40.1l0.856,2.312c0.208,0.588,0.372,1.113,0.506,1.609h0.015
			c0.134-0.482,0.313-1.007,0.536-1.609l0.894-2.312h0.827l0.313,4.779h-0.641L43.287,55.823z"/>
		<path fill="#575656" d="M47.858,55.682h-1.944v1.723h2.174v0.518h-2.829v-4.779h2.718v0.518h-2.063v1.51h1.944V55.682z"/>
		<path fill="#575656" d="M49.153,53.214c0.395-0.064,0.864-0.106,1.377-0.106c0.931,0,1.594,0.213,2.033,0.596
			c0.454,0.39,0.714,0.943,0.714,1.716c0,0.78-0.26,1.418-0.722,1.858c-0.477,0.447-1.251,0.687-2.227,0.687
			c-0.469,0-0.849-0.021-1.176-0.056V53.214z M49.801,57.439c0.164,0.021,0.402,0.029,0.655,0.029c1.393,0,2.137-0.737,2.137-2.028
			c0.008-1.128-0.663-1.843-2.033-1.843c-0.335,0-0.588,0.028-0.759,0.063V57.439z"/>
		<path fill="#575656" d="M54.983,53.143v4.779h-0.655v-4.779H54.983z"/>
		<path fill="#575656" d="M57.15,56.419l-0.521,1.503h-0.67l1.712-4.779h0.774l1.712,4.779h-0.691l-0.537-1.503H57.15z
			 M58.804,55.937l-0.5-1.376c-0.112-0.312-0.186-0.596-0.261-0.872h-0.015c-0.074,0.276-0.148,0.574-0.253,0.865l-0.492,1.383
			H58.804z"/>
		<path fill="#575656" d="M66.42,57.773C66.189,57.887,65.705,58,65.094,58c-1.414,0-2.472-0.85-2.472-2.425
			c0-1.503,1.065-2.51,2.622-2.51c0.618,0,1.02,0.127,1.191,0.212l-0.164,0.503c-0.238-0.113-0.588-0.198-1.005-0.198
			c-1.177,0-1.958,0.716-1.958,1.971c0,1.178,0.707,1.922,1.921,1.922c0.402,0,0.804-0.078,1.065-0.198L66.42,57.773z"/>
		<path fill="#575656" d="M71.75,55.483c0,1.638-1.05,2.517-2.33,2.517c-1.333,0-2.257-0.985-2.257-2.432
			c0-1.518,0.983-2.51,2.324-2.51C70.865,53.058,71.75,54.058,71.75,55.483z M67.849,55.554c0,1.028,0.581,1.943,1.608,1.943
			c1.027,0,1.608-0.901,1.608-1.986c0-0.957-0.521-1.95-1.601-1.95S67.849,54.511,67.849,55.554z"/>
		<path fill="#575656" d="M77.044,55.823c-0.037-0.667-0.082-1.475-0.082-2.063h-0.015c-0.179,0.552-0.379,1.156-0.633,1.815
			l-0.886,2.318h-0.491l-0.819-2.276c-0.238-0.681-0.432-1.291-0.574-1.857H73.53c-0.015,0.595-0.052,1.389-0.097,2.113
			l-0.134,2.049h-0.618l0.35-4.779h0.827l0.856,2.312c0.208,0.588,0.373,1.113,0.506,1.609h0.015
			c0.134-0.482,0.313-1.007,0.536-1.609l0.894-2.312h0.826l0.313,4.779h-0.64L77.044,55.823z"/>
		<path fill="#575656" d="M79.025,53.2c0.313-0.05,0.722-0.092,1.244-0.092c0.64,0,1.109,0.142,1.408,0.397
			c0.268,0.227,0.438,0.574,0.438,1c0,0.432-0.134,0.772-0.387,1.021c-0.35,0.348-0.901,0.525-1.534,0.525
			c-0.194,0-0.372-0.007-0.521-0.043v1.915h-0.647V53.2z M79.672,55.504c0.142,0.035,0.32,0.049,0.536,0.049
			c0.782,0,1.259-0.369,1.259-1.014c0-0.638-0.477-0.942-1.184-0.942c-0.284,0-0.499,0.021-0.611,0.049V55.504z"/>
		<path fill="#575656" d="M84.021,56.419L83.5,57.922h-0.67l1.712-4.779h0.774l1.713,4.779h-0.692l-0.536-1.503H84.021z
			 M85.674,55.937l-0.498-1.376c-0.112-0.312-0.187-0.596-0.261-0.872H84.9c-0.074,0.276-0.149,0.574-0.253,0.865l-0.491,1.383
			H85.674z"/>
		<path fill="#575656" d="M87.99,57.922v-4.779h0.714l1.602,2.417c0.365,0.561,0.663,1.064,0.894,1.554l0.022-0.008
			c-0.06-0.638-0.074-1.219-0.074-1.964v-2h0.61v4.779h-0.655l-1.593-2.426c-0.35-0.531-0.685-1.077-0.931-1.595l-0.022,0.007
			c0.038,0.603,0.044,1.177,0.044,1.971v2.042H87.99z"/>
		<path fill="#575656" d="M94.229,57.922v-2.028l-1.594-2.751h0.745l0.707,1.318c0.187,0.362,0.343,0.653,0.5,0.986h0.014
			c0.134-0.312,0.313-0.624,0.506-0.986l0.722-1.318h0.73l-1.676,2.744v2.035H94.229z"/>
	</g>
	<g>
		<g>
			<rect y="48.097" fill="#575656" width="96.803" height="0.12"/>
		</g>
	</g>
</g>
</svg>
