<?xml version="1.0" encoding="utf-8"?>
<!DOCTYPE svg PUBLIC "-//W3C//DTD SVG 1.1//EN" "http://www.w3.org/Graphics/SVG/1.1/DTD/svg11.dtd">
<svg version="1.1" id="home_fork_knife" xmlns="http://www.w3.org/2000/svg" xmlns:xlink="http://www.w3.org/1999/xlink" x="0px" y="0px"
	 width="35px" height="35px" viewBox="-433 246.5 35 35" enable-background="new -433 246.5 35 35" xml:space="preserve">
<g>
	<path fill-rule="evenodd" clip-rule="evenodd" fill="#B7C261" d="M-398.114,247.996c0.003,0.557-0.168,1.065-0.322,1.562
		c-1.068,3.445-2.9,6.502-4.967,9.423c-1.057,1.493-2.221,2.911-3.289,4.396c-0.777,1.082-1.744,1.607-3.064,1.258
		c-1.334-0.354-2.242,0.184-3.096,1.182c-3.711,4.334-7.463,8.635-11.214,12.936c-1.535,1.76-2.815,1.695-4.181-0.162
		c-0.829-1.125-0.78-2.029,0.323-3.178c1.606-1.672,3.255-3.305,4.913-4.928c3.687-3.611,7.431-7.164,11.077-10.818
		c3.896-3.905,7.699-7.904,11.557-11.848c0.283-0.288,0.599-0.544,0.948-0.82C-399.19,246.808-398.117,247.505-398.114,247.996z"/>
	<path fill-rule="evenodd" clip-rule="evenodd" fill="#B7C261" d="M-413.755,269.412c0,0,1.813-1.941,2.696-2.979
		c0.422,0.332,0.744,0.641,1.076,0.945c2.713,2.488,5.42,4.98,8.121,7.482c1.562,1.447,2.021,2.422,1.34,3.496
		c-0.309,0.49-1.41,1.436-1.912,1.576c-0.857,0.24-1.623,0.059-2.295-0.682c-2.877-3.16-5.773-6.303-8.66-9.457
		C-413.46,269.717-413.755,269.412-413.755,269.412z"/>
	<path fill-rule="evenodd" clip-rule="evenodd" fill="#B7C261" d="M-417.953,256.425c-2.719-2.739-5.398-5.52-8.107-8.271
		c-0.446-0.453-1.063-1.027-1.653-0.52c-0.461,0.397-0.125,0.853,0.033,1.078c0.86,1.23,2.993,3.416,2.993,3.416l3.949,4.49
		l-1.259,1.068c0,0-6.544-7.193-6.783-7.455c-0.43-0.468-1.028-1.063-1.635-0.576c0,0-0.708,0.545,0.447,1.7
		c0.25,0.25,6.89,7.378,6.89,7.378l-1.193,1.166l-4.147-4.308c0,0-2.001-2.307-3.156-3.266c-0.211-0.176-0.638-0.549-1.071-0.122
		c-0.555,0.546-0.034,1.209,0.38,1.69c2.517,2.928,5.065,5.828,7.57,8.766c0.941,1.104,2.072,1.492,3.486,1.307
		c0.87-0.113,1.755-0.102,2.585-0.143c0.306-0.28,0.607-0.556,0.901-0.825l-0.017-0.018c0.148-0.138,0.293-0.271,0.444-0.411
		c0.109-0.822,0.171-1.706,0.356-2.563C-416.637,258.613-416.931,257.454-417.953,256.425z"/>
</g>
<text transform="matrix(1 0 0 1 20.5449 473.2695)" font-family="'MyriadPro-Regular'" font-size="12">e7c371</text>
</svg>
