<?xml version="1.0" encoding="utf-8"?>
<!-- Generator: Adobe Illustrator 15.1.0, SVG Export Plug-In . SVG Version: 6.00 Build 0)  -->
<!DOCTYPE svg PUBLIC "-//W3C//DTD SVG 1.1//EN" "http://www.w3.org/Graphics/SVG/1.1/DTD/svg11.dtd">
<svg version="1.1" id="Ebene_1" xmlns="http://www.w3.org/2000/svg" xmlns:xlink="http://www.w3.org/1999/xlink" x="0px" y="0px"
	 width="240.543px" height="144.543px" viewBox="0 0 240.543 144.543" enable-background="new 0 0 240.543 144.543"
	 xml:space="preserve">
<g>
	<g>
		<path fill="#CB0D1D" d="M20.957,24.896c-5.227-2.104-9.741-3.922-9.741-8.303c0-4.454,3.538-7.008,9.704-7.008
			c3.18,0,6.727,0.553,9.99,1.557l1.213,0.374l0.641-10.34l-0.885-0.151C27.779,0.326,24.457,0,21.427,0
			C8.121,0-0.478,6.91-0.478,17.604c0,10.851,8.345,14.13,15.05,16.765c5.268,2.07,9.815,3.858,9.815,8.522
			c0,7.009-7.199,7.767-10.295,7.767c-3.64,0-8.029-0.785-11.454-2.047l-1.266-0.466L0.74,58.996l0.799,0.205
			C5.01,60.091,9.17,60.58,13.25,60.58c13.656,0,22.832-7.65,22.832-19.037C36.082,30.986,27.695,27.609,20.957,24.896
			 M106.711,0.843L85.597,59.738H97l4.382-12.56h21.591l4.384,12.56h12.335L118.315,0.843H106.711z M104.461,37.846l5.918-16.277
			c0.675-1.867,1.266-3.714,1.754-5.472c0.486,1.796,1.031,3.487,1.676,5.222l6.002,16.527H104.461z M71.615,24.359H50.727V0.843
			H39.539v58.896h11.188V34.199h20.889v25.539h11.104V0.843H71.615V24.359z M165.001,34.298l-0.554-0.694
			c9.315-1.654,15.232-8.049,15.232-16.673c0-10.899-7.029-16.425-20.893-16.425c-6.858,0-11.439,0.101-15.318,0.339l-0.939,0.058
			v58.836h11.188V36.643l16.609,23.096h14.072l-16.224-21.42C167.218,37.078,166.108,35.688,165.001,34.298 M153.718,26.289v-16.17
			c1.064-0.058,2.401-0.112,3.805-0.112c7.294,0,10.547,2.448,10.547,7.935c0,5.206-4.17,8.441-10.884,8.441
			C155.77,26.383,154.576,26.341,153.718,26.289 M226.024,24.896c-5.226-2.104-9.741-3.922-9.741-8.303
			c0-4.454,3.537-7.008,9.705-7.008c3.18,0,6.728,0.553,9.99,1.557l1.213,0.374l0.641-10.34l-0.887-0.151
			C232.848,0.326,229.525,0,226.494,0c-13.306,0-21.903,6.91-21.903,17.604c0,10.851,8.346,14.13,15.051,16.765
			c5.266,2.07,9.815,3.858,9.815,8.522c0,7.009-7.199,7.767-10.295,7.767c-3.641,0-8.03-0.785-11.455-2.047l-1.266-0.466
			l-0.632,10.851l0.798,0.205c3.47,0.89,7.629,1.379,11.711,1.379c13.657,0,22.831-7.65,22.831-19.037
			C241.149,30.986,232.765,27.609,226.024,24.896 M188.135,59.738h11.188V0.842h-11.188V59.738z"/>
		<path d="M12.889,104.532c-2.728,0-4.793-0.26-6.897-0.779V77.135h4.17v8.5c0,1.078-0.116,2.561-0.351,3.527h0.078
			c1.013-2.301,3.313-3.75,6.156-3.75c4.6,0,7.133,3.117,7.133,8.688C23.178,100.485,19.319,104.532,12.889,104.532 M14.954,88.717
			c-3.118,0-4.793,3.453-4.793,6.57v5.719c0.857,0.26,1.832,0.371,3.04,0.371c3.313,0,5.572-1.932,5.572-6.906
			C18.773,90.758,17.565,88.717,14.954,88.717"/>
		<path d="M40.904,104.235c0-0.965,0.078-2.563,0.273-3.602l-0.039-0.037c-1.13,2.375-3.468,4.01-6.742,4.01
			c-4.403,0-5.768-2.637-5.768-5.902v-12.92h4.131v11.881c0,2.301,0.663,3.637,2.885,3.637c2.922,0,5.065-2.932,5.065-6.607v-8.91
			h4.17v18.451H40.904z"/>
		<path d="M54.845,104.606c-1.442,0-2.884-0.148-4.092-0.371l0.117-3.377c1.208,0.334,2.728,0.594,4.209,0.594
			c2.26,0,3.819-0.93,3.819-2.451c0-3.713-8.496-1.486-8.496-7.871c0-3.191,2.728-5.717,7.988-5.717
			c1.131,0,2.455,0.148,3.625,0.334l-0.117,3.23c-1.168-0.334-2.533-0.52-3.78-0.52c-2.3,0-3.429,0.891-3.429,2.301
			c0,3.564,8.572,1.744,8.572,7.871C63.262,102.083,60.027,104.606,54.845,104.606"/>
		<path d="M69.597,83.038c-1.481,0-2.688-1.113-2.688-2.488c0-1.373,1.207-2.488,2.688-2.488c1.442,0,2.649,1.078,2.649,2.488
			C72.246,81.924,71.039,83.038,69.597,83.038 M67.492,85.784h4.17v18.451h-4.17V85.784z"/>
		<path d="M89.395,104.235V92.356c0-2.303-0.664-3.641-2.885-3.641c-2.923,0-5.066,2.936-5.066,6.609v8.91h-4.17V85.784h3.976
			c0,0.967-0.078,2.561-0.272,3.602l0.038,0.037c1.13-2.375,3.47-4.01,6.742-4.01c4.403,0,5.769,2.635,5.769,5.904v12.918H89.395z"
			/>
		<path d="M114.602,95.25h-12.354c-0.117,4.27,1.871,6.199,5.729,6.199c1.988,0,4.053-0.443,5.65-1.188l0.391,3.156
			c-1.949,0.779-4.326,1.188-6.703,1.188c-6.041,0-9.354-2.969-9.354-9.467c0-5.568,3.195-9.727,8.847-9.727
			c5.534,0,7.911,3.602,7.911,7.982C114.719,93.915,114.68,94.545,114.602,95.25 M106.652,88.346c-2.339,0-3.976,1.633-4.326,4.121
			h8.223C110.627,89.942,109.106,88.346,106.652,88.346"/>
		<path d="M122.568,104.606c-1.441,0-2.884-0.148-4.092-0.371l0.117-3.377c1.208,0.334,2.728,0.594,4.209,0.594
			c2.261,0,3.819-0.93,3.819-2.451c0-3.713-8.497-1.486-8.497-7.871c0-3.191,2.729-5.717,7.989-5.717
			c1.13,0,2.455,0.148,3.624,0.334l-0.115,3.23c-1.17-0.334-2.533-0.52-3.78-0.52c-2.3,0-3.43,0.891-3.43,2.301
			c0,3.564,8.572,1.744,8.572,7.871C130.985,102.083,127.752,104.606,122.568,104.606"/>
		<path d="M138.485,104.606c-1.442,0-2.884-0.148-4.092-0.371l0.116-3.377c1.208,0.334,2.729,0.594,4.208,0.594
			c2.262,0,3.82-0.93,3.82-2.451c0-3.713-8.495-1.486-8.495-7.871c0-3.191,2.728-5.717,7.988-5.717c1.131,0,2.456,0.148,3.625,0.334
			l-0.117,3.23c-1.169-0.334-2.533-0.52-3.781-0.52c-2.298,0-3.429,0.891-3.429,2.301c0,3.564,8.574,1.744,8.574,7.871
			C146.903,102.083,143.669,104.606,138.485,104.606"/>
		<rect x="158.283" y="77.135" width="4.171" height="27.1"/>
		<path d="M175.73,104.606c-5.378,0-8.884-2.857-8.884-9.355c0-5.568,3.78-9.838,9.664-9.838c5.184,0,8.846,2.746,8.846,9.244
			C185.356,100.336,181.46,104.606,175.73,104.606 M176.16,88.754c-2.533,0-4.988,1.855-4.988,6.088c0,4.158,1.715,6.35,4.949,6.35
			c2.688,0,4.949-2.006,4.949-6.275C181.07,90.981,179.473,88.754,176.16,88.754"/>
		<path d="M197.462,113.739c-5.067,0-8.224-1.855-8.224-5.42c0-2.078,1.441-3.824,3.117-4.641c-1.169-0.557-1.908-1.521-1.908-2.746
			c0-1.338,0.856-2.6,2.221-3.156c-1.909-1.002-2.884-2.896-2.884-5.199c0-3.896,3.118-7.164,8.65-7.164
			c1.169,0,2.145,0.148,3.197,0.371h6.547v3.119h-2.962c0.818,0.631,1.325,1.744,1.325,3.082c0,4.008-2.923,6.83-8.379,6.83
			c-0.74,0-1.637-0.074-2.222-0.186c-0.779,0.297-1.131,0.854-1.131,1.373c0,0.93,0.858,1.301,3.196,1.301h3.313
			c4.209,0,6.587,1.893,6.587,5.346C207.906,110.583,203.697,113.739,197.462,113.739 M200.188,104.532h-3.624
			c-0.35,0-0.739,0-1.053-0.037c-1.324,0.705-2.142,1.82-2.142,3.08c0,1.969,1.948,3.084,4.754,3.084
			c3.624,0,5.649-1.486,5.649-3.492C203.773,105.573,202.644,104.532,200.188,104.532 M198.241,88.346
			c-2.769,0-4.404,1.596-4.404,3.859c0,2.414,1.559,3.826,4.365,3.826c2.61,0,4.325-1.375,4.325-3.789
			C202.527,89.793,200.929,88.346,198.241,88.346"/>
		<path d="M215.081,83.038c-1.481,0-2.689-1.113-2.689-2.488c0-1.373,1.208-2.488,2.689-2.488c1.441,0,2.649,1.078,2.649,2.488
			C217.73,81.924,216.522,83.038,215.081,83.038 M212.977,85.784h4.17v18.451h-4.17V85.784z"/>
		<path d="M229.101,104.532c-4.988,0-8.613-2.338-8.613-8.91c0-5.865,3.157-10.135,9.821-10.135c1.44,0,2.923,0.186,4.209,0.557
			l-0.43,3.453c-1.169-0.408-2.493-0.705-3.896-0.705c-3.546,0-5.339,2.488-5.339,6.385c0,3.379,1.286,5.941,5.144,5.941
			c1.481,0,3.079-0.334,4.208-0.893l0.353,3.379C233.271,104.086,231.244,104.532,229.101,104.532"/>
	</g>
	<g>
		<path fill="#575656" d="M2.974,140.826l-1.301,3.753H0l4.274-11.93h1.933l4.275,11.93H8.753l-1.338-3.753H2.974z M7.099,139.623
			l-1.245-3.434c-0.279-0.779-0.464-1.487-0.65-2.178H5.167c-0.186,0.69-0.372,1.434-0.632,2.16l-1.227,3.451H7.099z"/>
		<path fill="#575656" d="M17.376,132.791c0.78-0.124,1.803-0.23,3.104-0.23c1.599,0,2.769,0.354,3.513,0.991
			c0.669,0.566,1.097,1.434,1.097,2.496c0,1.079-0.334,1.929-0.967,2.549c-0.874,0.867-2.249,1.31-3.828,1.31
			c-0.483,0-0.93-0.018-1.301-0.106v4.779h-1.617V132.791z M18.993,138.542c0.353,0.089,0.799,0.124,1.338,0.124
			c1.951,0,3.141-0.92,3.141-2.531c0-1.593-1.189-2.354-2.955-2.354c-0.706,0-1.245,0.053-1.524,0.124V138.542z"/>
		<path fill="#575656" d="M29.438,132.649v4.991h6.059v-4.991h1.635v11.93h-1.635v-5.593h-6.059v5.593h-1.635v-11.93H29.438z"/>
		<path fill="#575656" d="M51.201,138.49c0,4.089-2.621,6.283-5.817,6.283c-3.327,0-5.631-2.46-5.631-6.07
			c0-3.788,2.454-6.267,5.799-6.267C48.989,132.436,51.201,134.932,51.201,138.49z M41.462,138.667c0,2.566,1.45,4.851,4.014,4.851
			c2.565,0,4.015-2.248,4.015-4.957c0-2.389-1.301-4.867-3.996-4.867S41.462,136.065,41.462,138.667z"/>
		<path fill="#575656" d="M60.326,138.986h-4.851v4.301h5.427v1.292H53.84v-11.93h6.784v1.292h-5.148v3.77h4.851V138.986z"/>
		<path fill="#575656" d="M63.56,144.579v-11.93h1.784l3.996,6.035c0.911,1.398,1.654,2.655,2.23,3.877l0.056-0.018
			c-0.149-1.594-0.186-3.045-0.186-4.903v-4.991h1.524v11.93h-1.635l-3.977-6.054c-0.874-1.327-1.71-2.69-2.323-3.982l-0.056,0.018
			c0.093,1.505,0.111,2.938,0.111,4.921v5.098H63.56z"/>
		<path fill="#575656" d="M77.963,132.649v11.93h-1.635v-11.93H77.963z"/>
		<path fill="#575656" d="M88.204,144.579l-1.617-2.638c-0.65-1.009-1.041-1.663-1.431-2.354h-0.038
			c-0.353,0.69-0.725,1.327-1.356,2.371l-1.505,2.62h-1.858l3.828-6.036l-3.68-5.894h1.877l1.654,2.796
			c0.464,0.779,0.818,1.381,1.152,2.019h0.056c0.353-0.708,0.669-1.257,1.134-2.019l1.691-2.796h1.877l-3.81,5.806l3.903,6.124
			H88.204z"/>
		<path fill="#575656" d="M107.569,139.339c-0.093-1.664-0.204-3.682-0.204-5.15h-0.038c-0.446,1.38-0.948,2.885-1.58,4.531
			l-2.211,5.787h-1.227l-2.044-5.682c-0.595-1.699-1.078-3.221-1.431-4.637h-0.037c-0.037,1.486-0.13,3.469-0.242,5.274
			l-0.334,5.115h-1.542l0.874-11.93h2.063l2.138,5.771c0.52,1.469,0.929,2.778,1.264,4.018h0.037
			c0.334-1.204,0.781-2.514,1.338-4.018l2.23-5.771h2.063l0.781,11.93h-1.599L107.569,139.339z"/>
		<path fill="#575656" d="M118.979,138.986h-4.851v4.301h5.427v1.292h-7.062v-11.93h6.784v1.292h-5.148v3.77h4.851V138.986z"/>
		<path fill="#575656" d="M122.213,132.826c0.985-0.159,2.156-0.266,3.438-0.266c2.323,0,3.978,0.531,5.074,1.487
			c1.134,0.974,1.784,2.354,1.784,4.283c0,1.947-0.65,3.54-1.803,4.638c-1.189,1.115-3.123,1.717-5.558,1.717
			c-1.171,0-2.118-0.054-2.937-0.142V132.826z M123.83,143.375c0.409,0.054,1.004,0.071,1.636,0.071
			c3.476,0,5.334-1.841,5.334-5.063c0.019-2.814-1.654-4.602-5.074-4.602c-0.836,0-1.468,0.07-1.896,0.159V143.375z"/>
		<path fill="#575656" d="M136.765,132.649v11.93h-1.636v-11.93H136.765z"/>
		<path fill="#575656" d="M142.174,140.826l-1.301,3.753H139.2l4.274-11.93h1.933l4.274,11.93h-1.728l-1.339-3.753H142.174z
			 M146.3,139.623l-1.245-3.434c-0.279-0.779-0.465-1.487-0.65-2.178h-0.038c-0.186,0.69-0.371,1.434-0.632,2.16l-1.227,3.451H146.3
			z"/>
		<path fill="#575656" d="M165.312,144.207c-0.576,0.283-1.784,0.566-3.309,0.566c-3.53,0-6.17-2.124-6.17-6.053
			c0-3.753,2.658-6.267,6.542-6.267c1.543,0,2.546,0.319,2.974,0.531l-0.409,1.257c-0.595-0.283-1.468-0.496-2.509-0.496
			c-2.937,0-4.888,1.788-4.888,4.921c0,2.938,1.766,4.797,4.795,4.797c1.004,0,2.007-0.194,2.658-0.495L165.312,144.207z"/>
		<path fill="#575656" d="M178.617,138.49c0,4.089-2.62,6.283-5.816,6.283c-3.327,0-5.632-2.46-5.632-6.07
			c0-3.788,2.453-6.267,5.799-6.267C176.406,132.436,178.617,134.932,178.617,138.49z M168.879,138.667
			c0,2.566,1.449,4.851,4.015,4.851c2.564,0,4.014-2.248,4.014-4.957c0-2.389-1.301-4.867-3.995-4.867
			C170.217,133.693,168.879,136.065,168.879,138.667z"/>
		<path fill="#575656" d="M191.832,139.339c-0.093-1.664-0.204-3.682-0.204-5.15h-0.037c-0.446,1.38-0.948,2.885-1.58,4.531
			l-2.212,5.787h-1.227l-2.044-5.682c-0.595-1.699-1.078-3.221-1.432-4.637h-0.037c-0.037,1.486-0.13,3.469-0.241,5.274
			l-0.335,5.115h-1.542l0.873-11.93h2.063l2.137,5.771c0.521,1.469,0.93,2.778,1.264,4.018h0.038
			c0.334-1.204,0.78-2.514,1.338-4.018l2.23-5.771h2.063l0.78,11.93h-1.598L191.832,139.339z"/>
		<path fill="#575656" d="M196.774,132.791c0.781-0.124,1.803-0.23,3.104-0.23c1.598,0,2.769,0.354,3.513,0.991
			c0.669,0.566,1.096,1.434,1.096,2.496c0,1.079-0.334,1.929-0.966,2.549c-0.874,0.867-2.249,1.31-3.829,1.31
			c-0.483,0-0.929-0.018-1.301-0.106v4.779h-1.617V132.791z M198.392,138.542c0.354,0.089,0.799,0.124,1.338,0.124
			c1.952,0,3.142-0.92,3.142-2.531c0-1.593-1.189-2.354-2.955-2.354c-0.707,0-1.245,0.053-1.524,0.124V138.542z"/>
		<path fill="#575656" d="M209.246,140.826l-1.301,3.753h-1.673l4.274-11.93h1.933l4.274,11.93h-1.728l-1.339-3.753H209.246z
			 M213.372,139.623l-1.245-3.434c-0.279-0.779-0.465-1.487-0.65-2.178h-0.038c-0.186,0.69-0.371,1.434-0.632,2.16l-1.227,3.451
			H213.372z"/>
		<path fill="#575656" d="M219.151,144.579v-11.93h1.784l3.996,6.035c0.911,1.398,1.654,2.655,2.23,3.877l0.056-0.018
			c-0.148-1.594-0.186-3.045-0.186-4.903v-4.991h1.523v11.93h-1.636l-3.977-6.054c-0.874-1.327-1.71-2.69-2.323-3.982l-0.056,0.018
			c0.093,1.505,0.111,2.938,0.111,4.921v5.098H219.151z"/>
		<path fill="#575656" d="M234.726,144.579v-5.063l-3.978-6.867h1.858l1.766,3.292c0.465,0.902,0.855,1.629,1.246,2.46h0.037
			c0.334-0.778,0.78-1.558,1.264-2.46l1.803-3.292h1.821l-4.182,6.85v5.08H234.726z"/>
	</g>
	<g>
		
			<line fill="none" stroke="#575656" stroke-width="0.3" stroke-miterlimit="10" x1="-0.478" y1="120.204" x2="241.149" y2="120.204"/>
	</g>
</g>
</svg>
