<?xml version="1.0" encoding="utf-8"?>
<!DOCTYPE svg PUBLIC "-//W3C//DTD SVG 1.1//EN" "http://www.w3.org/Graphics/SVG/1.1/DTD/svg11.dtd">
<svg version="1.1" id="home_basket" xmlns="http://www.w3.org/2000/svg" xmlns:xlink="http://www.w3.org/1999/xlink" x="0px" y="0px"
	 width="55px" height="55px" viewBox="0 0 55 55" enable-background="new 0 0 55 55" xml:space="preserve">
<g>
	<path fill="#3A4C62" d="M28.002,38.65c2.831,0,4.26-2.123,4.26-4.258V3.5h-8.521v30.895C23.74,36.527,25.026,38.65,28.002,38.65z"
		/>
	<path fill="#3A4C62" d="M52.5,10.958c0-1.888-1.143-6.393-5.324-6.393c-0.928,0-8.52,3.679-8.52,7.456
		c0,1.418,4.756,4.632,4.172,5.192c-0.585,0.562-0.979,0.135-0.979,0.135c-1.858-1.414-3.933-1.775-5.326-3.194
		c-0.467,0.943-1.062,1.187-1.062,2.131c0,1.414,4.255,4.976,4.255,6.389c0,0.944-1.061,0-1.061,0
		c-1.395-1.414-2.87-2.25-4.262-3.194c-0.467,0.943-0.604,1.656-1.065,2.131v10.651H52.5v-5.326h-5.324
		C49.036,22.216,52.5,14.732,52.5,10.958z"/>
	<polygon fill="#3A4C62" points="17.35,4.565 17.35,3.501 12.025,3.501 12.025,4.565 12.025,7.763 17.35,7.763 	"/>
	<path fill="#3A4C62" d="M33.328,35.455c0,1.195-0.729,4.227-5.326,4.329v0.013L28,39.783c-4.599-0.104-5.326-3.133-5.326-4.33
		v-2.129H4.566v6.392c0,12.403,10.208,12.784,18.11,12.784H33.33c7.896,0,18.109-0.381,18.109-12.783v-6.393H33.328V35.455z"/>
	<path fill="#3A4C62" d="M22.676,20.542c-0.283-4.843-5.326-4.334-5.326-8.52V8.828h-5.325v3.193
		c0.333,3.161-4.032,4.206-4.263,8.52v2.131v3.195H3.5V28v4.264h19.176V20.542z M20.545,25.867H9.894v-3.195h10.65L20.545,25.867
		L20.545,25.867z"/>
	<rect x="23.74" y="3.501" fill="#3A4C62" width="8.521" height="1.514"/>
</g>
</svg>
