<?xml version="1.0" encoding="utf-8"?>
<!DOCTYPE svg PUBLIC "-//W3C//DTD SVG 1.1//EN" "http://www.w3.org/Graphics/SVG/1.1/DTD/svg11.dtd">
<svg version="1.1" id="home_beans" xmlns="http://www.w3.org/2000/svg" xmlns:xlink="http://www.w3.org/1999/xlink" x="0px" y="0px"
	 width="55px" height="55px" viewBox="0 0 55 55" enable-background="new 0 0 55 55" xml:space="preserve">
<path fill="#3A4C62" d="M19.025,38.548c-0.363,4.589,1.926,11.259,9.946,11.911c10.418,0.838,24.945-9.506,25.983-22.593
	c0.452-5.723-2.364-10.883-10.375-11.53C42.973,16.21,20.489,20.052,19.025,38.548z M36.311,34.184
	c-3.276,0.56-5.568,4.078-8.23,7.15c-0.942-11.966,13.59-7.995,18.686-17.003C48.051,31.257,39.643,32.811,36.311,34.184z
	 M30.451,19.138l0.414-0.423C22.164,6.61,15.722,3.895,9.906,4.596C6.541,5.003,0.683,7.797,0.024,15.839
	c-0.42,5.106,4.69,15.702,17.191,20.554c0.369-2.742,1.247-5.156,2.455-7.271c-7.591-6.136-6.103-17.012-14.114-16.053
	c0,0,3.146-1.403,4.746-0.804c8.268,3.069,4.386,10.511,10.782,14.707C23.677,23.484,27.153,20.937,30.451,19.138z"/>
</svg>
