<?xml version="1.0" encoding="utf-8"?>
<!DOCTYPE svg PUBLIC "-//W3C//DTD SVG 1.1//EN" "http://www.w3.org/Graphics/SVG/1.1/DTD/svg11.dtd">
<svg version="1.1" id="home_ornament" xmlns="http://www.w3.org/2000/svg" xmlns:xlink="http://www.w3.org/1999/xlink" x="0px" y="0px"
	 width="100px" height="50px" viewBox="0 0 100 50" enable-background="new 0 0 100 50" xml:space="preserve">
<path fill="#FFFFFF" d="M93.512,37.794c1.401-3.124,1.82-8.024-0.57-11.401c-1.261-1.781-3.79-3.822-8.671-3.411
	c-4.062,0.338-6.146,2.376-7.179,4.026c-2.026,3.235-1.61,7.32-0.639,9.836c0.584,1.513,1.421,2.726,2.316,3.688
	c-6.247,0.003-16.244-0.628-24.67-4.435c6.574-4.714,10.46-10.735,11.321-17.625c0.784-6.272-1.597-10.167-3.731-12.33
	c-2.915-2.952-7.294-4.603-11.69-4.509c-4.396-0.094-8.775,1.557-11.69,4.509c-2.135,2.163-4.515,6.058-3.73,12.33
	c0.86,6.89,4.746,12.911,11.32,17.625c-8.426,3.807-18.422,4.438-24.669,4.435c0.896-0.963,1.732-2.176,2.316-3.688
	c0.972-2.516,1.387-6.601-0.639-9.836c-1.033-1.65-3.117-3.688-7.179-4.026c-4.88-0.411-7.41,1.63-8.67,3.411
	c-2.39,3.376-1.972,8.277-0.57,11.401c0.994,2.215,2.479,3.683,3.919,4.648l-4.527,2.39l1.867,3.537l7.711-4.07
	c3.744,0.331,21.177,1.398,34.407-5.696c0.044,0.024,0.089,0.049,0.134,0.074c0.045-0.025,0.09-0.05,0.134-0.074
	c13.23,7.095,30.664,6.027,34.408,5.696l7.712,4.07l1.867-3.537l-4.527-2.39C91.032,41.477,92.518,40.009,93.512,37.794z
	 M19.815,35.403c-1.294,3.348-4.617,4.543-4.65,4.555l-0.396,0.183c-1.038-0.306-3.416-1.275-4.631-3.983
	c-0.958-2.134-1.219-5.472,0.185-7.453c0.835-1.179,2.24-1.774,4.183-1.774c0.286,0,0.583,0.013,0.891,0.039
	c1.937,0.161,3.323,0.889,4.121,2.163C20.674,30.978,20.482,33.677,19.815,35.403z M50.088,33.952
	c-0.03-0.019-0.059-0.038-0.089-0.057c-0.03,0.019-0.059,0.038-0.089,0.057c-5.387-3.411-10.434-8.534-11.364-15.974
	c-0.47-3.758,0.408-6.794,2.609-9.024c2.142-2.169,5.523-3.41,8.844-3.319c3.32-0.091,6.702,1.15,8.844,3.319
	c2.201,2.23,3.079,5.266,2.609,9.024C60.521,25.418,55.475,30.541,50.088,33.952z M85.23,40.141l-0.396-0.183
	c-0.033-0.012-3.356-1.207-4.65-4.555c-0.667-1.727-0.858-4.426,0.298-6.271c0.798-1.274,2.185-2.002,4.121-2.163
	c0.309-0.026,0.605-0.039,0.892-0.039c1.942,0,3.348,0.595,4.183,1.774c1.403,1.981,1.143,5.318,0.185,7.453
	C88.646,38.865,86.269,39.835,85.23,40.141z"/>
</svg>
