<?xml version="1.0" encoding="utf-8"?>
<!DOCTYPE svg PUBLIC "-//W3C//DTD SVG 1.1//EN" "http://www.w3.org/Graphics/SVG/1.1/DTD/svg11.dtd">
<svg version="1.1" id="home_wheat" xmlns="http://www.w3.org/2000/svg" xmlns:xlink="http://www.w3.org/1999/xlink" x="0px" y="0px"
	 width="55px" height="55px" viewBox="0.5 0.5 55 55" enable-background="new 0.5 0.5 55 55" xml:space="preserve">
<path fill="#AA8F7A" d="M39.38,33.137c-1.709,1.072-3.364,2.2-5.072,3.272c-1.477,1.012-3.773,2.38-4.366,4.281
	c-0.117,0.478-0.471,1.372-0.471,1.55v2.376c-0.057,0.658-0.473,1.014-0.943,1.014h-0.029h-0.029c-0.475,0-0.884-0.355-0.941-1.014
	v-2.379c0-0.175-0.355-1.069-0.475-1.549c-0.589-1.899-2.891-3.27-4.366-4.279c-1.707-1.074-3.358-2.202-5.072-3.273H17.5v4.7
	c0,1.307,0.943,3.332,2.416,4.459c1.179,0.952,2.539,1.667,3.773,2.497c1.001,0.712,2.243,1.251,3.007,2.56
	c0.477,0.715,0.83,1.786,0.89,2.499V55.5h0.911h0.915v-5.65c0.059-0.712,0.412-1.783,0.882-2.499
	c0.765-1.306,2.004-1.844,3.01-2.559c1.238-0.831,2.592-1.545,3.771-2.498c1.476-1.131,2.423-3.152,2.423-4.458v-4.701h-0.121v0.001
	L39.38,33.137L39.38,33.137z M18.734,23.992c-0.411-0.3-0.825-0.537-1.234-0.715v4.695c0,0.12,0.173,0.952,0.233,1.373
	c0.059,0.296,0.236,0.532,0.356,0.892c0.527,1.425,2.652,2.85,3.832,3.566c1.418,0.893,2.771,1.902,4.247,2.795
	c0.356,0.24,0.709,0.594,1.357,0.771l0.06-4.104c-0.06-0.592-0.177-1.189-0.298-1.721c-0.115-0.537-0.413-1.132-0.646-1.551
	C25.402,27.676,21.393,25.951,18.734,23.992z M38.257,23.992c-2.648,1.959-6.661,3.684-7.9,6.002
	c-0.238,0.416-0.531,1.012-0.645,1.549c-0.12,0.533-0.239,1.131-0.298,1.723l0.057,4.104c0.647-0.178,1.004-0.535,1.355-0.771
	c1.477-0.894,2.837-1.903,4.246-2.797c1.185-0.715,3.307-2.139,3.835-3.564c0.116-0.359,0.296-0.597,0.354-0.892
	c0.06-0.419,0.239-1.253,0.239-1.372v-4.696C39.083,23.454,38.673,23.691,38.257,23.992z M39.499,0.5h-0.944v13.263
	c-0.415,0.297-0.943,0.532-1.301,0.834c-2.474,1.958-6.897,3.328-7.604,6.896c-0.061,0.297-0.12,0.596-0.18,0.833v5.056h0.18
	c0.645-0.48,1.411-0.895,2.005-1.372c2.532-2.02,6.662-3.212,7.545-6.716c0.061-0.416,0.238-0.835,0.299-1.25L39.499,0.5L39.499,0.5
	z M35.838,0.5h-0.882v13.38c0.297-0.177,0.591-0.36,0.882-0.596V0.5z M28.939,0.5h-0.885v3.388c-1.826,1.903-2.949,3.926-3.125,5.83
	v5.057c0,1.069,2.005,2.377,2.656,2.731c0.293,0.178,0.768,0.596,0.883,0.596c0.178,0,1.533-0.951,2.298-1.489
	c0.354-0.237,0.653-0.594,0.888-0.952c0.232-0.354,0.348-0.771,0.47-1.189v-4.4c0-0.177-0.118-0.354-0.118-0.474
	c-0.238-1.964-1.413-3.807-3.066-5.772V0.5L28.939,0.5z M22.098,0.5h-0.885v12.843c0.236,0.177,0.529,0.36,0.885,0.537V0.5z
	 M18.443,0.5H17.5v17.426c0,1.367,1.116,3.684,2.592,4.638c2.361,1.607,7.195,4.817,7.314,4.817c0.178,0,0.117-0.059,0.178-0.117
	v-4.045c0-2.32-1.418-4.818-4.309-6.303c-0.763-0.359-1.474-1.01-2.181-1.43c-0.885-0.533-1.768-1.129-2.652-1.72L18.443,0.5
	L18.443,0.5z"/>
</svg>
