<?xml version="1.0" encoding="utf-8"?>
<!DOCTYPE svg PUBLIC "-//W3C//DTD SVG 1.1//EN" "http://www.w3.org/Graphics/SVG/1.1/DTD/svg11.dtd">
<svg version="1.1" id="logo" xmlns="http://www.w3.org/2000/svg" xmlns:xlink="http://www.w3.org/1999/xlink" x="0px" y="0px"
	 width="100px" height="48px" viewBox="0 0 100 48" enable-background="new 0 0 100 48" xml:space="preserve">
<g>
	<path fill="#665752" d="M29.31,19.096H19.247v-5.75h12.757c0.273-1.583,0.438-2.967,0.438-4.131c0-0.583-0.056-1.201-0.111-1.857
		c-0.088-0.655-0.199-1.4-0.326-2.147H10.002v37.58h22.33c0.291-1.475,0.457-2.818,0.457-4.131c0-1.186-0.164-2.512-0.457-3.984
		H19.248v-7.406h10.064c0.29-1.494,0.455-2.858,0.455-4.101C29.766,22.006,29.601,20.64,29.31,19.096z"/>
	<path fill="#665752" d="M54.588,28.575c-0.619,0.163-1.221,0.294-1.801,0.384c-0.562,0.108-1.129,0.126-1.729,0.126
		c-0.564,0-1.109-0.05-1.643-0.16c-0.51-0.111-1.058-0.24-1.655-0.399l3.516-13.467L54.588,28.575z M45.906,35.528
		c0.893,0.254,1.768,0.453,2.604,0.562c0.817,0.105,1.618,0.158,2.438,0.158c0.87,0,1.729-0.053,2.639-0.197
		c0.854-0.127,1.817-0.348,2.783-0.64l1.979,7.267c0.803,0.146,1.53,0.254,2.237,0.321c0.688,0.056,1.384,0.108,2.076,0.108
		c1.511,0,3.235-0.163,5.226-0.491L56.371,5.228c-1.02-0.072-1.928-0.165-2.678-0.238c-0.801-0.053-1.523-0.107-2.188-0.107
		c-0.799,0-1.598,0.056-2.348,0.108c-0.799,0.072-1.637,0.165-2.528,0.237L34.95,42.569c0.981,0.201,1.912,0.311,2.729,0.42
		c0.803,0.074,1.551,0.129,2.169,0.129c0.619,0,1.275-0.055,1.93-0.109c0.654-0.076,1.381-0.183,2.199-0.328L45.906,35.528z"/>
	<path fill="#665752" d="M74.188,42.624c1.785,0.326,3.332,0.492,4.645,0.492c1.197,0,2.748-0.166,4.584-0.492V13.345h8.695
		c0.26-1.585,0.424-2.968,0.424-4.133c0-0.584-0.059-1.2-0.109-1.856c-0.068-0.655-0.188-1.401-0.312-2.147H65.468
		c-0.325,1.512-0.452,2.857-0.452,4.006c0,1.235,0.127,2.639,0.452,4.132h8.72V42.624z"/>
	<path fill="#D6416B" d="M92.996,33.526c-0.729,0.091-1.49,0.162-2.271,0.271c-0.166,0.816-0.271,1.577-0.326,2.311
		c-0.056,0.746-0.088,1.459-0.088,2.132c0,0.71,0.032,1.418,0.088,2.146c0.059,0.746,0.16,1.51,0.326,2.293
		c0.781,0.146,1.545,0.254,2.271,0.328c0.729,0.053,1.438,0.108,2.146,0.108c0.705,0,1.398-0.056,2.146-0.108
		c0.692-0.076,1.455-0.185,2.274-0.328c0.125-0.783,0.231-1.547,0.326-2.293c0.055-0.729,0.106-1.438,0.106-2.146
		c0-0.677-0.056-1.388-0.104-2.132c-0.097-0.729-0.201-1.489-0.328-2.312c-0.819-0.107-1.582-0.18-2.272-0.271
		c-0.746-0.054-1.438-0.108-2.146-0.108C94.434,33.416,93.723,33.472,92.996,33.526z"/>
</g>
</svg>
