<?xml version="1.0" encoding="utf-8"?>
<!DOCTYPE svg PUBLIC "-//W3C//DTD SVG 1.1//EN" "http://www.w3.org/Graphics/SVG/1.1/DTD/svg11.dtd">
<svg version="1.1" id="home_wheat" xmlns="http://www.w3.org/2000/svg" xmlns:xlink="http://www.w3.org/1999/xlink" x="0px" y="0px"
	 width="55px" height="55px" viewBox="0 0 55 55" enable-background="new 0 0 55 55" xml:space="preserve">
<path fill="#774B72" d="M39.38,33.137c-1.709,1.072-3.364,2.2-5.071,3.272c-1.478,1.012-3.773,2.38-4.367,4.28
	c-0.116,0.479-0.471,1.373-0.471,1.551v2.376c-0.057,0.657-0.473,1.014-0.943,1.014h-0.028h-0.028c-0.476,0-0.885-0.354-0.942-1.014
	v-2.38c0-0.174-0.355-1.068-0.475-1.549c-0.589-1.898-2.891-3.27-4.366-4.278c-1.707-1.074-3.358-2.202-5.072-3.272H17.5v4.699
	c0,1.307,0.943,3.332,2.416,4.459c1.179,0.952,2.539,1.667,3.773,2.497c1.001,0.712,2.243,1.251,3.007,2.56
	c0.477,0.715,0.83,1.787,0.89,2.5V55.5h0.911h0.915v-5.65c0.059-0.711,0.412-1.783,0.882-2.498c0.765-1.307,2.004-1.845,3.011-2.56
	c1.237-0.831,2.592-1.545,3.771-2.498c1.476-1.131,2.423-3.151,2.423-4.458v-4.701h-0.121v0.002H39.38L39.38,33.137z M18.734,23.992
	c-0.411-0.3-0.825-0.537-1.234-0.715v4.695c0,0.12,0.173,0.952,0.233,1.374c0.059,0.295,0.236,0.531,0.356,0.891
	c0.527,1.426,2.652,2.851,3.832,3.566c1.418,0.893,2.771,1.902,4.247,2.795c0.356,0.24,0.709,0.594,1.357,0.771l0.06-4.104
	c-0.06-0.593-0.177-1.189-0.298-1.722c-0.115-0.537-0.413-1.132-0.646-1.551C25.402,27.676,21.393,25.951,18.734,23.992z
	 M38.257,23.992c-2.647,1.959-6.661,3.684-7.899,6.002c-0.238,0.416-0.531,1.012-0.646,1.549c-0.12,0.533-0.239,1.131-0.298,1.723
	l0.057,4.104c0.647-0.179,1.004-0.535,1.355-0.771c1.477-0.895,2.837-1.904,4.246-2.797c1.185-0.716,3.307-2.14,3.835-3.564
	c0.116-0.359,0.296-0.598,0.354-0.893c0.059-0.418,0.238-1.253,0.238-1.372v-4.696C39.083,23.454,38.673,23.691,38.257,23.992z
	 M39.499,0.5h-0.944v13.263c-0.414,0.297-0.943,0.532-1.301,0.834c-2.475,1.958-6.896,3.328-7.604,6.896
	c-0.062,0.297-0.121,0.596-0.18,0.833v5.056h0.18c0.645-0.48,1.41-0.895,2.004-1.372c2.533-2.021,6.662-3.212,7.546-6.716
	c0.062-0.416,0.237-0.835,0.299-1.25V0.5L39.499,0.5z M35.838,0.5h-0.882v13.38c0.297-0.177,0.591-0.36,0.882-0.596V0.5z
	 M28.939,0.5h-0.885v3.388c-1.827,1.903-2.95,3.926-3.125,5.83v5.057c0,1.069,2.005,2.377,2.656,2.731
	c0.293,0.178,0.769,0.596,0.883,0.596c0.179,0,1.533-0.951,2.298-1.489c0.354-0.237,0.653-0.594,0.889-0.952
	c0.232-0.354,0.348-0.771,0.47-1.189v-4.4c0-0.177-0.118-0.354-0.118-0.474c-0.238-1.964-1.413-3.807-3.066-5.772V0.5L28.939,0.5z
	 M22.098,0.5h-0.885v12.843c0.236,0.177,0.529,0.36,0.885,0.537V0.5z M18.443,0.5H17.5v17.426c0,1.367,1.116,3.684,2.592,4.638
	c2.361,1.607,7.195,4.817,7.314,4.817c0.178,0,0.117-0.059,0.178-0.117v-4.045c0-2.32-1.418-4.818-4.309-6.303
	c-0.763-0.359-1.474-1.01-2.181-1.43c-0.885-0.533-1.768-1.129-2.652-1.72L18.443,0.5L18.443,0.5z"/>
</svg>
