<?xml version="1.0" encoding="utf-8"?>
<!DOCTYPE svg PUBLIC "-//W3C//DTD SVG 1.1//EN" "http://www.w3.org/Graphics/SVG/1.1/DTD/svg11.dtd">
<svg version="1.1" id="logo_small" xmlns="http://www.w3.org/2000/svg" xmlns:xlink="http://www.w3.org/1999/xlink" x="0px" y="0px"
	 width="70px" height="30px" viewBox="0 0 70 30" enable-background="new 0 0 70 30" xml:space="preserve">
<path fill="#FFFFFF" d="M16.687,11.908H9.318v-4.21h9.343c0.199-1.159,0.32-2.172,0.32-3.025c0-0.427-0.041-0.879-0.082-1.36
	c-0.064-0.479-0.146-1.025-0.238-1.572H2.55v27.521H18.9c0.213-1.08,0.335-2.064,0.335-3.025c0-0.868-0.12-1.84-0.335-2.918H9.32
	v-5.424h7.369c0.212-1.095,0.332-2.092,0.332-3C17.021,14.04,16.9,13.04,16.687,11.908z"/>
<path fill="#FFFFFF" d="M35.199,18.852c-0.455,0.119-0.895,0.215-1.319,0.281c-0.412,0.079-0.827,0.092-1.267,0.092
	c-0.413,0-0.812-0.037-1.199-0.117c-0.374-0.082-0.774-0.176-1.213-0.295l2.574-9.86L35.199,18.852z M28.841,23.941
	c0.652,0.188,1.294,0.332,1.907,0.412c0.599,0.08,1.185,0.119,1.785,0.119c0.639,0,1.265-0.039,1.932-0.147
	c0.625-0.091,1.333-0.25,2.038-0.466l1.45,5.318c0.589,0.106,1.122,0.186,1.641,0.238c0.506,0.039,1.014,0.08,1.52,0.08
	c1.107,0,2.371-0.12,3.826-0.359L36.504,1.753c-0.746-0.052-1.411-0.121-1.96-0.174C33.957,1.54,33.428,1.5,32.944,1.5
	c-0.585,0-1.171,0.041-1.719,0.08c-0.585,0.053-1.199,0.122-1.851,0.173L20.82,29.1c0.72,0.146,1.4,0.227,1.999,0.307
	c0.585,0.055,1.134,0.094,1.585,0.094c0.453,0,0.934-0.04,1.413-0.08c0.479-0.057,1.012-0.134,1.611-0.24L28.841,23.941z"/>
<path fill="#FFFFFF" d="M49.551,29.139c1.307,0.239,2.438,0.36,3.397,0.36c0.879,0,2.013-0.121,3.356-0.36V7.698h6.369
	c0.188-1.161,0.307-2.173,0.307-3.026c0-0.428-0.039-0.879-0.078-1.36c-0.053-0.479-0.135-1.026-0.229-1.572h-19.51
	c-0.238,1.107-0.33,2.091-0.33,2.933c0,0.905,0.092,1.933,0.33,3.026h6.386L49.551,29.139L49.551,29.139z"/>
<path fill="#85A6B9" d="M63.323,22.477c-0.534,0.066-1.093,0.119-1.664,0.199c-0.121,0.602-0.198,1.157-0.239,1.692
	c-0.041,0.547-0.062,1.067-0.062,1.562c0,0.52,0.021,1.038,0.062,1.57c0.041,0.546,0.118,1.105,0.239,1.68
	c0.571,0.105,1.131,0.186,1.664,0.239c0.532,0.039,1.053,0.079,1.571,0.079c0.517,0,1.025-0.04,1.569-0.079
	c0.509-0.056,1.065-0.134,1.669-0.239c0.09-0.574,0.17-1.134,0.237-1.68c0.039-0.534,0.079-1.055,0.079-1.572
	c0-0.494-0.038-1.015-0.078-1.562c-0.068-0.535-0.146-1.091-0.238-1.693c-0.604-0.077-1.16-0.13-1.667-0.198
	c-0.546-0.039-1.052-0.08-1.569-0.08C64.375,22.396,63.855,22.438,63.323,22.477z"/>
</svg>
