<?xml version="1.0" encoding="utf-8"?>
<!DOCTYPE svg PUBLIC "-//W3C//DTD SVG 1.1//EN" "http://www.w3.org/Graphics/SVG/1.1/DTD/svg11.dtd">
<svg version="1.1" id="home_fork_knife" xmlns="http://www.w3.org/2000/svg" xmlns:xlink="http://www.w3.org/1999/xlink" x="0px"
	 y="0px" width="35px" height="35px" viewBox="0 0 35 35" enable-background="new 0 0 35 35" xml:space="preserve">
<g>
	<path fill="#E7C371" d="M34.886,1.997c0.004,0.557-0.168,1.064-0.321,1.562c-1.068,3.444-2.9,6.502-4.967,9.422
		c-1.058,1.494-2.222,2.912-3.289,4.396c-0.777,1.082-1.744,1.607-3.064,1.258c-1.334-0.354-2.242,0.184-3.096,1.182
		c-3.711,4.334-7.463,8.636-11.214,12.937c-1.535,1.761-2.815,1.694-4.181-0.162c-0.829-1.125-0.78-2.028,0.323-3.178
		c1.606-1.672,3.255-3.306,4.913-4.929c3.687-3.61,7.431-7.164,11.077-10.817c3.896-3.905,7.699-7.903,11.557-11.849
		c0.283-0.287,0.6-0.543,0.948-0.819C33.811,0.81,34.883,1.506,34.886,1.997z"/>
	<path fill="#E7C371" d="M19.245,23.413c0,0,1.813-1.941,2.696-2.979c0.422,0.332,0.744,0.641,1.076,0.944
		c2.713,2.488,5.42,4.979,8.121,7.481c1.562,1.447,2.021,2.422,1.34,3.496c-0.31,0.49-1.41,1.437-1.912,1.576
		c-0.857,0.24-1.623,0.059-2.295-0.682c-2.877-3.16-5.773-6.303-8.66-9.457C19.54,23.718,19.245,23.413,19.245,23.413z"/>
	<path fill="#E7C371" d="M15.047,10.426C12.329,7.687,9.649,4.905,6.94,2.155C6.495,1.702,5.877,1.128,5.288,1.635
		C4.827,2.032,5.163,2.487,5.32,2.713c0.86,1.229,2.993,3.416,2.993,3.416l3.949,4.49l-1.259,1.067c0,0-6.544-7.192-6.783-7.455
		c-0.43-0.467-1.028-1.062-1.635-0.576c0,0-0.708,0.545,0.447,1.701c0.25,0.25,6.89,7.377,6.89,7.377l-1.193,1.166L4.583,9.592
		c0,0-2.001-2.308-3.156-3.267C1.215,6.149,0.789,5.776,0.355,6.204C-0.2,6.75,0.321,7.413,0.735,7.894
		c2.517,2.928,5.065,5.828,7.57,8.767c0.941,1.104,2.072,1.491,3.486,1.307c0.87-0.112,1.755-0.103,2.585-0.144
		c0.306-0.279,0.607-0.555,0.901-0.824l-0.017-0.018c0.148-0.139,0.293-0.271,0.444-0.412c0.109-0.821,0.171-1.705,0.356-2.562
		C16.363,12.614,16.069,11.455,15.047,10.426z"/>
</g>
</svg>
