<?xml version="1.0" encoding="utf-8"?>
<!DOCTYPE svg PUBLIC "-//W3C//DTD SVG 1.1//EN" "http://www.w3.org/Graphics/SVG/1.1/DTD/svg11.dtd">
<svg version="1.1" id="logo" xmlns="http://www.w3.org/2000/svg" xmlns:xlink="http://www.w3.org/1999/xlink" x="0px" y="0px"
	 width="100px" height="48px" viewBox="0 0 100 48" enable-background="new 0 0 100 48" xml:space="preserve">
<g>
	<path fill="#424242" d="M29.31,19.095H19.247v-5.749h12.757c0.273-1.583,0.438-2.967,0.438-4.131c0-0.583-0.056-1.201-0.111-1.857
		c-0.088-0.655-0.199-1.4-0.326-2.147H10.002v37.58h22.33c0.291-1.475,0.457-2.818,0.457-4.131c0-1.186-0.164-2.512-0.457-3.984
		H19.248v-7.406h10.064c0.29-1.494,0.455-2.858,0.455-4.099C29.766,22.005,29.601,20.64,29.31,19.095z"/>
	<path fill="#424242" d="M54.588,28.575c-0.619,0.163-1.221,0.294-1.801,0.384c-0.562,0.108-1.129,0.126-1.729,0.126
		c-0.564,0-1.109-0.05-1.64-0.16c-0.51-0.111-1.058-0.24-1.655-0.402l3.515-13.465L54.588,28.575z M45.906,35.528
		c0.893,0.254,1.768,0.453,2.604,0.562c0.817,0.108,1.618,0.161,2.438,0.161c0.87,0,1.728-0.053,2.637-0.2
		c0.854-0.127,1.819-0.345,2.783-0.637l1.981,7.264c0.803,0.146,1.531,0.254,2.238,0.324c0.689,0.053,1.383,0.108,2.076,0.108
		c1.511,0,3.236-0.163,5.225-0.491L56.371,5.228c-1.02-0.072-1.928-0.165-2.678-0.238c-0.801-0.053-1.523-0.107-2.185-0.107
		c-0.799,0-1.598,0.056-2.348,0.108c-0.799,0.072-1.637,0.165-2.528,0.237l-11.68,37.342c0.981,0.201,1.912,0.31,2.729,0.42
		c0.8,0.074,1.548,0.129,2.166,0.129c0.619,0,1.275-0.055,1.93-0.109c0.654-0.076,1.381-0.183,2.199-0.328L45.906,35.528z"/>
	<path fill="#424242" d="M74.188,42.624c1.785,0.326,3.332,0.492,4.642,0.492c1.2,0,2.748-0.166,4.584-0.492V13.345h8.698
		c0.257-1.585,0.421-2.968,0.421-4.133c0-0.584-0.056-1.2-0.109-1.856c-0.071-0.655-0.185-1.401-0.312-2.147H65.468
		c-0.325,1.512-0.452,2.857-0.452,4.006c0,1.235,0.127,2.639,0.452,4.132h8.72V42.624z"/>
	<path fill="#E6BF7F" d="M92.996,33.526c-0.729,0.091-1.49,0.162-2.271,0.271c-0.166,0.819-0.271,1.58-0.326,2.311
		c-0.056,0.746-0.088,1.459-0.088,2.132c0,0.71,0.032,1.418,0.088,2.146c0.056,0.746,0.16,1.51,0.326,2.293
		c0.781,0.146,1.545,0.254,2.271,0.328c0.729,0.053,1.438,0.108,2.146,0.108c0.705,0,1.401-0.056,2.146-0.108
		c0.693-0.076,1.455-0.185,2.275-0.328c0.125-0.783,0.233-1.547,0.326-2.293c0.055-0.729,0.108-1.438,0.108-2.147
		c0-0.675-0.054-1.386-0.106-2.131c-0.095-0.73-0.201-1.49-0.328-2.312c-0.82-0.106-1.582-0.179-2.273-0.271
		c-0.746-0.053-1.438-0.108-2.146-0.108C94.434,33.416,93.723,33.472,92.996,33.526z"/>
</g>
</svg>
